:SAMPLES-PER-SECOND 30
:FULLY-SPECIFIED
:DEGREES
143
root  13.6825 35.1064 8.20902 150.09 -79.6709 -156.423
RightUpLeg  -29.8175 -9.51108 -30.5292
RightLeg  38.4681 6.60458 5.28674
RightFoot  39.1147 -5.80738 12.8083
RightToes  -5.28226e-011 1.30204e-014 -6.03759e-014
Spine  28.5388 7.28587 -3.95933
Spine1  -4.26735 6.72327 -0.657826
HEad  -13.8941 4.11738 -6.20221
LeftShoulder1  0.821583 0.0386185 -16.1963
LeftArm  -35.2025 33.7097 -49.9893
LeftForeArm  -27.7884 -63.3149 -25.1618
LeftHand  0.407836 7.1783 26.2648
RightShoulder  0.885151 0.221691 17.2836
RightArm  -21.8661 -13.2153 22.7799
RightForeArm  -33.8075 5.30965 7.44986
RightHand  -0.796401 -1.98467 -26.6518
LeftUpLeg  -10.8827 14.5839 26.0775
LeftLeg  51.2742 3.82421 5.56895
LeftFoot  -18.6725 -1.73484 -28.2343
LeftToes  -2.75829e-010 5.07641e-011 -5.51782e-011
144
root  13.798 33.9252 7.46811 150.75 -80.4215 -156.136
RightUpLeg  -31.8384 -6.41306 -27.285
RightLeg  42.3008 -1.87424 -2.22954
RightFoot  30.9635 -3.96869 10.9007
RightToes  -5.28226e-011 1.30204e-014 -6.03759e-014
Spine  28.1696 4.09617 -15.4597
Spine1  -5.64749 -0.855795 11.5367
HEad  -15.0936 22.3756 -9.41958
LeftShoulder1  2.06165 -3.86844 -21.7421
LeftArm  -26.7674 45.6265 -35.0488
LeftForeArm  -38.1245 -54.7013 -18.8832
LeftHand  0.183936 6.30688 22.9941
RightShoulder  0.525435 -1.04883 14.8861
RightArm  -29.521 -1.25356 35.4489
RightForeArm  -28.4035 17.2746 6.8971
RightHand  -1.08003 -0.87136 -27.4299
LeftUpLeg  -15.5991 15.3443 26.9547
LeftLeg  57.7972 2.07723 4.07287
LeftFoot  -19.366 -1.84632 -27.4306
LeftToes  -2.75829e-010 5.07641e-011 -5.51782e-011
145
root  13.9302 32.669 6.53607 157.677 -86.1564 -162.573
RightUpLeg  -30.1743 -6.54858 -26.8449
RightLeg  48.2322 -8.19619 -9.96073
RightFoot  17.0628 -4.24342 17.5552
RightToes  -5.28226e-011 1.30204e-014 -6.03759e-014
Spine  29.9448 0.986515 -19.0926
Spine1  -4.72086 -6.24461 17.8773
HEad  -19.2998 28.5728 -10.3889
LeftShoulder1  2.61518 -5.25844 -23.6694
LeftArm  0.50409 39.9417 -20.9949
LeftForeArm  -47.6947 -37.917 -10.4928
LeftHand  -0.041921 5.18924 20.5393
RightShoulder  0.592412 -0.817488 15.486
RightArm  -30.4961 -9.04602 43.9836
RightForeArm  -27.9202 41.7805 11.8318
RightHand  -0.833146 -1.45164 -24.1314
LeftUpLeg  -23.3951 11.6486 28.5097
LeftLeg  64.9933 0.207473 1.22508
LeftFoot  -17.6912 -1.4058 -26.8274
LeftToes  -2.75829e-010 5.07641e-011 -5.51782e-011
146
root  14.0969 31.1894 5.82296 42.3326 -83.7966 -48.3318
RightUpLeg  -26.1632 -10.3971 -31.6318
RightLeg  54.7111 -4.20993 -6.48447
RightFoot  5.38497 -4.46022 29.6896
RightToes  -5.28226e-011 1.30204e-014 -6.03759e-014
Spine  33.5712 0.0414822 -12.8533
Spine1  -3.80821 -5.87755 13.4295
HEad  -22.7986 17.6189 -7.00934
LeftShoulder1  2.05423 -4.03494 -20.7527
LeftArm  19.0962 13.8183 -17.035
LeftForeArm  -52.1323 -17.2124 -8.86932
LeftHand  0.306898 6.8861 23.7299
RightShoulder  1.0916 0.978672 17.5605
RightArm  -35.7342 -31.2232 43.8153
RightForeArm  -27.8531 57.5705 19.4597
RightHand  -0.520559 -2.51118 -20.9327
LeftUpLeg  -30.7599 4.4557 28.9084
LeftLeg  71.34 -0.478505 -0.581476
LeftFoot  -18.0675 -1.54285 -27.5143
LeftToes  -2.75829e-010 5.07641e-011 -5.51782e-011
147
root  14.2894 29.6134 5.31908 2.21664 -79.2826 -9.70192
RightUpLeg  -23.4034 -14.2287 -39.0908
RightLeg  60.6657 4.03959 7.2962
RightFoot  -1.55112 -3.16205 35.1323
RightToes  -5.28226e-011 1.30204e-014 -6.03759e-014
Spine  36.2363 0.882148 -0.881878
Spine1  -2.73816 0.0201968 0.784069
HEad  -26.0498 -3.62326 0.521092
LeftShoulder1  1.15914 -1.02084 -19.3181
LeftArm  -13.6642 -19.188 -22.174
LeftForeArm  -25.1783 1.47552 -14.1324
LeftHand  0.368758 6.93766 27.5494
RightShoulder  1.9336 3.04303 23.4779
RightArm  -34.152 -51.5136 37.5652
RightForeArm  -34.1653 52.3832 17.1169
RightHand  -0.658584 -1.53585 -19.6184
LeftUpLeg  -34.9468 -1.76782 28.7957
LeftLeg  75.6718 -0.66858 -1.77923
LeftFoot  -22.2909 -2.76055 -29.5013
LeftToes  -2.75829e-010 5.07641e-011 -5.51782e-011
148
root  14.4581 28.1933 4.76796 3.39798 -79.6043 -11.5333
RightUpLeg  -25.935 -14.6208 -42.0574
RightLeg  66.4598 7.41064 17.3196
RightFoot  -6.57413 -1.44395 32.4684
RightToes  -5.28226e-011 1.30204e-014 -6.03759e-014
Spine  38.3277 2.35467 6.14174
Spine1  -1.60509 5.38899 -8.11956
HEad  -31.719 -15.9436 7.18357
LeftShoulder1  0.624417 1.08203 -18.4341
LeftArm  -25.0719 -26.0828 -31.7186
LeftForeArm  -29.9549 -17.6791 -8.93052
LeftHand  -0.35907 3.90057 27.1721
RightShoulder  2.19978 3.03101 27.6958
RightArm  -21.8127 -55.4781 31.9366
RightForeArm  -40.4251 39.8221 11.2869
RightHand  -0.831529 -0.839606 -21.1573
LeftUpLeg  -35.2666 -1.81244 30.7744
LeftLeg  78.2337 -1.03147 -4.37408
LeftFoot  -27.8956 -4.49241 -31.3145
LeftToes  -2.75829e-010 5.07641e-011 -5.51782e-011
149
root  14.5435 27.0795 3.98639 -5.58128 -85.8964 -2.65758
RightUpLeg  -32.5301 -11.0527 -38.8866
RightLeg  70.8579 5.56837 16.5334
RightFoot  -13.1055 0.410685 30.7056
RightToes  -5.28226e-011 1.30204e-014 -6.03759e-014
Spine  39.7136 3.71056 1.5781
Spine1  -2.04682 4.92499 -4.63743
HEad  -35.0672 -9.08941 6.75325
LeftShoulder1  0.143815 2.67353 -12.847
LeftArm  -27.1827 -5.89399 -35.8419
LeftForeArm  -38.7128 -41.9835 -11.279
LeftHand  -0.245428 4.09388 21.6754
RightShoulder  1.39435 1.27433 22.807
RightArm  -19.8944 -41.9153 32.9568
RightForeArm  -41.5135 31.1558 8.57751
RightHand  -0.807159 -1.45586 -23.5545
LeftUpLeg  -32.3062 3.91823 35.6843
LeftLeg  79.8701 -1.43853 -8.05894
LeftFoot  -31.3105 -5.73626 -32.8167
LeftToes  -2.75829e-010 5.07641e-011 -5.51782e-011
150
root  14.4812 26.2441 3.00372 118.558 -85.8741 -127.155
RightUpLeg  -38.4457 -5.21081 -34.8986
RightLeg  74.7021 3.17044 12.1568
RightFoot  -19.5947 2.21327 31.7438
RightToes  -5.28226e-011 1.30204e-014 -6.03759e-014
Spine  40.2411 3.38182 -10.0582
Spine1  -4.41519 -1.14364 6.49197
HEad  -33.6931 10.2433 -0.134396
LeftShoulder1  0.638556 0.665407 -13.5195
LeftArm  -29.1112 22.3729 -26.6253
LeftForeArm  -35.3276 -40.3012 -11.6968
LeftHand  -0.256654 3.93347 19.7471
RightShoulder  0.729524 -0.424001 17.4955
RightArm  -30.9159 -20.8686 41.5414
RightForeArm  -34.2119 32.9844 9.01162
RightHand  -1.06971 -0.787851 -26.5394
LeftUpLeg  -27.6493 8.66599 41.341
LeftLeg  80.7444 -1.6016 -10.2133
LeftFoot  -31.5764 -6.29475 -35.3045
LeftToes  -2.75829e-010 5.07641e-011 -5.51782e-011
151
root  14.3257 25.8742 2.10968 154.825 -82.5672 -164.458
RightUpLeg  -41.0678 -0.16701 -32.916
RightLeg  77.6581 2.21465 10.5846
RightFoot  -22.3069 3.04687 32.5299
RightToes  -5.28226e-011 1.30204e-014 -6.03759e-014
Spine  41.5022 0.575395 -17.3315
Spine1  -6.7526 -7.44184 13.5455
HEad  -32.3808 27.5116 -7.02809
LeftShoulder1  1.88528 -2.98416 -23.1995
LeftArm  -18.5028 36.2102 -13.3221
LeftForeArm  -43.0337 -17.0293 -5.95033
LeftHand  0.0670144 5.69342 23.0282
RightShoulder  0.558531 -1.08012 16.4779
RightArm  -27.5243 -8.56392 52.9508
RightForeArm  -31.332 42.9286 12.0935
RightHand  -1.3985 0.0288065 -29.6276
LeftUpLeg  -23.3753 7.05543 44.06
LeftLeg  79.9153 -1.4035 -7.97067
LeftFoot  -30.0848 -6.36705 -38.3005
LeftToes  -2.75829e-010 5.07641e-011 -5.51782e-011
152
root  14.0593 26.1375 1.43601 156.626 -81.2728 -167.26
RightUpLeg  -40.9531 2.72005 -31.6565
RightLeg  78.6973 1.98022 10.3022
RightFoot  -22.3076 2.98128 31.8647
RightToes  -5.28226e-011 1.30204e-014 -6.03759e-014
Spine  41.7215 -2.77904 -17.2349
Spine1  -5.8589 -10.8098 12.2856
HEad  -33.2726 36.2616 -11.8578
LeftShoulder1  2.0898 -3.22008 -24.8305
LeftArm  -12.9435 37.5758 -16.5548
LeftForeArm  -58.3544 -1.45372 -5.87311
LeftHand  0.838602 9.52936 23.5857
RightShoulder  0.286516 -2.15569 14.6286
RightArm  -19.4267 -6.5058 62.4917
RightForeArm  -28.8726 49.5733 15.0617
RightHand  -1.17338 -0.993556 -30.4714
LeftUpLeg  -19.851 1.21868 42.6651
LeftLeg  76.9429 -0.480506 -1.22006
LeftFoot  -28.275 -6.11677 -40.5522
LeftToes  -2.75829e-010 5.07641e-011 -5.51782e-011
153
root  13.5732 26.9293 0.895026 164.475 -80.3109 -175.35
RightUpLeg  -39.5642 4.18295 -30.8573
RightLeg  77.5716 1.93882 8.99547
RightFoot  -22.6135 2.98664 31.1129
RightToes  -5.28226e-011 1.30204e-014 -6.03759e-014
Spine  39.4881 -4.84372 -12.0724
Spine1  -3.59163 -10.0276 5.55434
HEad  -33.3271 36.6428 -14.1947
LeftShoulder1  1.36525 -1.74724 -19.4345
LeftArm  -20.5841 34.6693 -29.106
LeftForeArm  -59.9228 -0.149289 -4.68413
LeftHand  0.57582 8.37956 22.447
RightShoulder  0.266825 -2.08733 12.2746
RightArm  -18.9288 -12.6646 67.1223
RightForeArm  -23.1045 57.7212 20.077
RightHand  -0.875531 -2.14788 -30.8029
LeftUpLeg  -15.637 -3.25328 38.9274
LeftLeg  72.4215 1.45556 6.16924
LeftFoot  -26.3068 -5.73202 -42.8668
LeftToes  -2.75829e-010 5.07641e-011 -5.51782e-011
154
root  12.9327 28.14 0.322514 179.187 -78.7977 170.219
RightUpLeg  -37.4806 5.41377 -31.3573
RightLeg  74.4837 2.01442 7.21117
RightFoot  -23.1158 3.04099 30.3479
RightToes  -5.28226e-011 1.30204e-014 -6.03759e-014
Spine  36.5159 -4.78895 -3.9082
Spine1  -3.65364 -5.36253 -4.45005
HEad  -28.4045 28.8751 -12.5984
LeftShoulder1  0.775734 0.16051 -16.6839
LeftArm  -26.1617 29.0404 -35.8871
LeftForeArm  -51.3318 -8.32592 -5.10556
LeftHand  0.262425 6.70452 23.3375
RightShoulder  0.664518 2.45586e-005 11.793
RightArm  -24.1296 -24.8012 66.4785
RightForeArm  -19.8018 62.8715 24.4799
RightHand  -0.857034 -2.32672 -31.8738
LeftUpLeg  -11.0129 -3.59531 34.8311
LeftLeg  66.6709 3.38573 9.4094
LeftFoot  -21.7667 -4.27896 -46.1841
LeftToes  -2.75829e-010 5.07641e-011 -5.51782e-011
